<svg xmlns="http://www.w3.org/2000/svg">
    <symbol id="logo" width="54" height="56" viewBox="0 0 54 56" fill="none" xmlns="http://www.w3.org/2000/svg">
        <ellipse cx="24.0385" cy="24" rx="24.0385" ry="24" fill="currentColor"/>
        <g filter="url(#filter0_d_2_121)">
        <ellipse cx="37.0189" cy="35.0401" rx="12.9808" ry="12.96" fill="white"/>
        </g>
        <defs>
        <filter id="filter0_d_2_121" x="20.0381" y="22.0801" width="33.9619" height="33.9199" filterUnits="userSpaceOnUse" color-interpolation-filters="sRGB">
        <feFlood flood-opacity="0" result="BackgroundImageFix"/>
        <feColorMatrix in="SourceAlpha" type="matrix" values="0 0 0 0 0 0 0 0 0 0 0 0 0 0 0 0 0 0 127 0" result="hardAlpha"/>
        <feOffset dy="4"/>
        <feGaussianBlur stdDeviation="2"/>
        <feColorMatrix type="matrix" values="0 0 0 0 0.224444 0 0 0 0 0.272708 0 0 0 0 0.533333 0 0 0 0.18 0"/>
        <feBlend mode="normal" in2="BackgroundImageFix" result="effect1_dropShadow_2_121"/>
        <feBlend mode="normal" in="SourceGraphic" in2="effect1_dropShadow_2_121" result="shape"/>
        </filter>
        </defs>
    </symbol>
    <symbol id="arrow-right" width="6" height="11" viewBox="0 0 6 11" fill="none" xmlns="http://www.w3.org/2000/svg">
        <path d="M5.58656 5.22558L0.961262 0.613083C0.80972 0.462049 0.56437 0.462303 0.413081 0.613865C0.26191 0.765407 0.2623 1.01089 0.413862 1.16205L4.76384 5.50002L0.413706 9.83797C0.262164 9.98914 0.261773 10.2345 0.412925 10.386C0.488764 10.462 0.58812 10.5 0.687475 10.5C0.786576 10.5 0.88554 10.4623 0.961243 10.3868L5.58656 5.77443C5.65954 5.70181 5.7005 5.60299 5.7005 5.50002C5.7005 5.39705 5.65943 5.29834 5.58656 5.22558Z" fill="#5D71DD"/>
    </symbol>
    <symbol id="arrow-form" width="20" height="19" viewBox="0 0 20 19" fill="none" xmlns="http://www.w3.org/2000/svg">
        <path d="M19.5857 8.85046L1.01474 0.279244C0.719033 0.144962 0.366184 0.22496 0.160475 0.479239C-0.046663 0.733519 -0.0538057 1.09494 0.143332 1.35636L6.25033 9.49902L0.143332 17.6417C-0.0538057 17.9031 -0.046663 18.2659 0.159046 18.5188C0.297614 18.6917 0.504752 18.7845 0.714747 18.7845C0.816173 18.7845 0.917599 18.7631 1.01331 18.7188L19.5843 10.1476C19.8386 10.0304 20 9.77758 20 9.49902C20 9.22045 19.8386 8.9676 19.5857 8.85046Z" fill="white"/>
    </symbol>
    <symbol id="phone" width="14" height="15" viewBox="0 0 14 15" fill="none" xmlns="http://www.w3.org/2000/svg">
        <path d="M13.6189 10.7746L11.6652 8.82085C10.9674 8.12308 9.7812 8.40222 9.50209 9.30928C9.29276 9.9373 8.595 10.2862 7.96701 10.1466C6.57148 9.79772 4.68752 7.98353 4.33863 6.51822C4.1293 5.89021 4.54796 5.19244 5.17595 4.98314C6.08305 4.70403 6.36215 3.51783 5.66439 2.82007L3.71064 0.866327C3.15243 0.377891 2.31511 0.377891 1.82668 0.866327L0.500926 2.19208C-0.824828 3.58761 0.640479 7.28576 3.91997 10.5653C7.19947 13.8448 10.8976 15.3799 12.2932 13.9843L13.6189 12.6586C14.1074 12.1003 14.1074 11.263 13.6189 10.7746Z" fill="currentColor"/>
    </symbol>
    <symbol id="more" width="20" height="18" viewBox="0 0 20 18" fill="none" xmlns="http://www.w3.org/2000/svg">
        <path d="M17.6975 2.72857V4.56969C17.5652 4.3404 17.4228 4.11641 17.2697 3.89865C16.7339 3.13649 16.0849 2.46569 15.3406 1.90484C14.5874 1.33731 13.7545 0.895974 12.8651 0.593121C11.9452 0.279898 10.9819 0.121094 10.0022 0.121094C8.97906 0.121094 7.97556 0.29393 7.01967 0.634823C6.09585 0.964249 5.23726 1.44268 4.46773 2.05685C3.70581 2.66494 3.0527 3.38874 2.52661 4.20812C1.99067 5.04286 1.60156 5.95383 1.3701 6.91571C1.22138 7.53378 1.60185 8.1554 2.21994 8.30412C2.31045 8.32589 2.40102 8.33633 2.49017 8.33633C3.0099 8.33633 3.4814 7.98186 3.60835 7.4543C3.94753 6.04469 4.76273 4.76687 5.90379 3.85618C6.47386 3.40121 7.10943 3.04694 7.79286 2.80325C8.49993 2.55111 9.24323 2.42326 10.0022 2.42326C11.442 2.42326 12.809 2.87979 13.9552 3.74346C14.7308 4.3279 15.3703 5.08443 15.8219 5.93806H14.5466C13.9109 5.93806 13.3955 6.45342 13.3955 7.08914C13.3955 7.72486 13.9109 8.24021 14.5466 8.24021H18.8485C19.4843 8.24021 19.9996 7.72486 19.9996 7.08914V2.72857C19.9996 2.09285 19.4843 1.5775 18.8485 1.5775C18.2128 1.5775 17.6975 2.09285 17.6975 2.72857Z" fill="white"/>
        <path d="M1.15107 16.4209C1.78679 16.4209 2.30214 15.9056 2.30214 15.2698V13.421C2.98785 14.6145 3.94261 15.6344 5.10098 16.4027C6.55344 17.366 8.24543 17.8757 9.9946 17.8772C9.99556 17.8772 9.9965 17.8773 9.99745 17.8773C9.99821 17.8773 9.999 17.8773 9.99977 17.8773C10.0007 17.8773 10.0016 17.8773 10.0025 17.8773C10.0037 17.8773 10.0049 17.8772 10.0061 17.8772C11.0262 17.8762 12.0267 17.7035 12.9799 17.3636C13.9037 17.0341 14.7623 16.5557 15.5318 15.9416C16.2938 15.3335 16.9469 14.6097 17.473 13.7903C18.0089 12.9556 18.398 12.0446 18.6295 11.0827C18.7782 10.4647 18.3978 9.84303 17.7796 9.69432C17.1615 9.5456 16.54 9.92607 16.3912 10.5441C16.052 11.9538 15.2368 13.2316 14.0958 14.1423C13.5257 14.5972 12.8902 14.9515 12.2067 15.1952C11.5004 15.447 10.7579 15.5749 9.99979 15.5751C8.70283 15.5746 7.44888 15.1974 6.37341 14.4841C5.44598 13.869 4.69477 13.0369 4.18074 12.0604H5.45301C6.08876 12.0604 6.60409 11.545 6.60409 10.9093C6.60409 10.2736 6.08873 9.75823 5.45301 9.75823H1.15107C0.515351 9.75823 0 10.2736 0 10.9093V15.2698C0 15.9056 0.515351 16.4209 1.15107 16.4209Z" fill="white"/>
    </symbol>

</svg>