<svg xmlns="http://www.w3.org/2000/svg">
    <symbol id="logo" width="54" height="56" viewBox="0 0 54 56" fill="none" xmlns="http://www.w3.org/2000/svg">
        <ellipse cx="24.0385" cy="24" rx="24.0385" ry="24" fill="currentColor"/>
        <g filter="url(#filter0_d_2_121)">
        <ellipse cx="37.0189" cy="35.0401" rx="12.9808" ry="12.96" fill="white"/>
        </g>
        <defs>
        <filter id="filter0_d_2_121" x="20.0381" y="22.0801" width="33.9619" height="33.9199" filterUnits="userSpaceOnUse" color-interpolation-filters="sRGB">
        <feFlood flood-opacity="0" result="BackgroundImageFix"/>
        <feColorMatrix in="SourceAlpha" type="matrix" values="0 0 0 0 0 0 0 0 0 0 0 0 0 0 0 0 0 0 127 0" result="hardAlpha"/>
        <feOffset dy="4"/>
        <feGaussianBlur stdDeviation="2"/>
        <feColorMatrix type="matrix" values="0 0 0 0 0.224444 0 0 0 0 0.272708 0 0 0 0 0.533333 0 0 0 0.18 0"/>
        <feBlend mode="normal" in2="BackgroundImageFix" result="effect1_dropShadow_2_121"/>
        <feBlend mode="normal" in="SourceGraphic" in2="effect1_dropShadow_2_121" result="shape"/>
        </filter>
        </defs>
    </symbol>
    <symbol id="arrow-right" width="6" height="11" viewBox="0 0 6 11" fill="none" xmlns="http://www.w3.org/2000/svg">
        <path d="M5.58656 5.22558L0.961262 0.613083C0.80972 0.462049 0.56437 0.462303 0.413081 0.613865C0.26191 0.765407 0.2623 1.01089 0.413862 1.16205L4.76384 5.50002L0.413706 9.83797C0.262164 9.98914 0.261773 10.2345 0.412925 10.386C0.488764 10.462 0.58812 10.5 0.687475 10.5C0.786576 10.5 0.88554 10.4623 0.961243 10.3868L5.58656 5.77443C5.65954 5.70181 5.7005 5.60299 5.7005 5.50002C5.7005 5.39705 5.65943 5.29834 5.58656 5.22558Z" fill="#5D71DD"/>
    </symbol>
    <symbol id="arrow-form" width="20" height="19" viewBox="0 0 20 19" fill="none" xmlns="http://www.w3.org/2000/svg">
        <path d="M19.5857 8.85046L1.01474 0.279244C0.719033 0.144962 0.366184 0.22496 0.160475 0.479239C-0.046663 0.733519 -0.0538057 1.09494 0.143332 1.35636L6.25033 9.49902L0.143332 17.6417C-0.0538057 17.9031 -0.046663 18.2659 0.159046 18.5188C0.297614 18.6917 0.504752 18.7845 0.714747 18.7845C0.816173 18.7845 0.917599 18.7631 1.01331 18.7188L19.5843 10.1476C19.8386 10.0304 20 9.77758 20 9.49902C20 9.22045 19.8386 8.9676 19.5857 8.85046Z" fill="white"/>
    </symbol>
    <symbol id="phone" width="14" height="15" viewBox="0 0 14 15" fill="none" xmlns="http://www.w3.org/2000/svg">
        <path d="M13.6189 10.7746L11.6652 8.82085C10.9674 8.12308 9.7812 8.40222 9.50209 9.30928C9.29276 9.9373 8.595 10.2862 7.96701 10.1466C6.57148 9.79772 4.68752 7.98353 4.33863 6.51822C4.1293 5.89021 4.54796 5.19244 5.17595 4.98314C6.08305 4.70403 6.36215 3.51783 5.66439 2.82007L3.71064 0.866327C3.15243 0.377891 2.31511 0.377891 1.82668 0.866327L0.500926 2.19208C-0.824828 3.58761 0.640479 7.28576 3.91997 10.5653C7.19947 13.8448 10.8976 15.3799 12.2932 13.9843L13.6189 12.6586C14.1074 12.1003 14.1074 11.263 13.6189 10.7746Z" fill="currentColor"/>
    </symbol>
</svg>